<svg width="94" height="94" viewBox="0 0 94 94" fill="none" xmlns="http://www.w3.org/2000/svg">
<path d="M47 0C21.0386 0 0 21.0441 0 47C0 72.9588 21.0412 94 47 94C72.9559 94 93.9971 72.9588 93.9971 47C93.9971 21.0471 72.9559 0 47 0ZM47 85.1874C25.9089 85.1874 8.81264 68.0911 8.81264 47C8.81264 25.9089 25.9118 8.81264 47 8.81264C68.0882 8.81264 85.1844 25.9089 85.1844 47C85.1844 68.0911 68.0885 85.1874 47 85.1874ZM65.4711 27.0074C63.4735 25.8149 60.9209 26.5227 59.7724 28.5936L44.0126 56.9023L35.2355 46.2186C33.6463 44.3885 31.5343 43.4399 29.5397 44.6324C27.5421 45.8279 26.7166 48.7038 28.0093 50.5487L40.2234 65.4153C41.137 66.6019 42.1796 67.313 43.2696 67.5157L43.2785 67.5335L43.3902 67.5394C43.637 67.5775 47.3266 68.259 48.9158 65.4156L67.0051 32.924C68.1529 30.8495 67.4688 28.2029 65.4711 27.0074Z" fill="#3DB39E"/>
</svg>
